<?xml version="1.0" encoding="utf-8"?>
<!-- Generator: Adobe Illustrator 20.0.0, SVG Export Plug-In . SVG Version: 6.00 Build 0)  -->
<svg version="1.1" id="Layer_1" xmlns="http://www.w3.org/2000/svg" xmlns:xlink="http://www.w3.org/1999/xlink" x="0px" y="0px"
	 viewBox="0 0 90 30" style="enable-background:new 0 0 90 30;" xml:space="preserve">
<style type="text/css">
	.st0{fill:#DA5D39;}
	.st1{fill:none;stroke:#DA5D39;stroke-width:1.3;stroke-miterlimit:10;}
	.st2{fill:none;stroke:#DA5D39;stroke-width:1.3;stroke-linecap:round;stroke-miterlimit:10;}
</style>
<g>
	<g>
		<path class="st0" d="M15,1.3c7.6,0,13.7,6.1,13.7,13.7S22.6,28.7,15,28.7S1.3,22.6,1.3,15S7.4,1.3,15,1.3 M15,0C6.7,0,0,6.7,0,15
			s6.7,15,15,15s15-6.7,15-15S23.3,0,15,0L15,0z"/>
	</g>
	<path class="st1" d="M16.3,16.3v7.4c0,0.2-0.1,0.3-0.3,0.3h-2c-0.2,0-0.3-0.1-0.3-0.3v-7.4c0,0-7.4,0-7.4,0c-0.2,0-0.3-0.1-0.3-0.3
		v-2c0-0.2,0.1-0.3,0.3-0.3c0,0,7.4,0,7.4,0V6.4c0-0.2,0.1-0.3,0.3-0.3h2c0.2,0,0.3,0.1,0.3,0.3v7.4c0,0,7.4,0,7.4,0
		c0.2,0,0.3,0.1,0.3,0.3v2c0,0.2-0.1,0.3-0.3,0.3C23.6,16.3,16.3,16.3,16.3,16.3z"/>
</g>
<g>
	<g>
		<path class="st0" d="M45,1.3c7.6,0,13.7,6.1,13.7,13.7S52.6,28.7,45,28.7S31.3,22.6,31.3,15S37.4,1.3,45,1.3 M45,0
			c-8.3,0-15,6.7-15,15s6.7,15,15,15s15-6.7,15-15S53.3,0,45,0L45,0z"/>
	</g>
	<g>
		<path class="st1" d="M41.7,12l-4.1,10.5c0,0.1,0,0.1,0.1,0.1l10.4-4.3c0.1-0.1,0.2-0.2,0.3-0.3l4.1-10.5c0-0.1,0-0.1-0.1-0.1
			l-10.4,4.3C41.8,11.8,41.7,11.9,41.7,12z"/>
		<line class="st1" x1="48.2" y1="18.1" x2="41.8" y2="11.9"/>
	</g>
	<line class="st2" x1="45" y1="29" x2="45" y2="27"/>
	<line class="st2" x1="45" y1="1" x2="45" y2="3"/>
	<line class="st2" x1="31" y1="15" x2="33" y2="15"/>
	<line class="st2" x1="57" y1="15" x2="59" y2="15"/>
</g>
<g>
	<g>
		<path class="st0" d="M75,1.3c7.6,0,13.7,6.1,13.7,13.7S82.6,28.7,75,28.7c-7.6,0-13.7-6.1-13.7-13.7S67.4,1.3,75,1.3 M75,0
			c-8.3,0-15,6.7-15,15s6.7,15,15,15s15-6.7,15-15S83.3,0,75,0L75,0z"/>
	</g>
	<g>
		<ellipse transform="matrix(0.7071 -0.7071 0.7071 0.7071 13.9764 58.5079)" class="st1" cx="77.6" cy="12.4" rx="1.9" ry="1.9"/>
		<path class="st1" d="M69.7,22c0.6-0.6,0.6-1.4,0.2-1.9c-0.5-0.5-1.3-0.4-1.9,0.2S67,23,67,23S69.1,22.6,69.7,22z"/>
		<path class="st1" d="M83.1,6.9c-3.7-0.5-7.5,0.7-10.4,3.5c-0.4,0.4-1.1,1.3-1.1,1.3c-1.6-0.1-3.2,0.4-4.4,1.6
			c-0.1,0.1-0.2,0.2-0.3,0.4l3.5,2.3c-0.5,1-0.3,2.3,0.5,3.1s2.1,1,3.1,0.5l2.3,3.5c0.1-0.1,0.3-0.2,0.4-0.3
			c1.2-1.2,1.8-2.9,1.6-4.4c0,0,0.9-0.7,1.3-1.1C82.4,14.5,83.6,10.6,83.1,6.9z"/>
	</g>
</g>
</svg>
