<?xml version="1.0" encoding="utf-8"?>
<svg version="1.1" id="Layer_1" xmlns="http://www.w3.org/2000/svg" xmlns:xlink="http://www.w3.org/1999/xlink" x="0px" y="0px"
	 viewBox="0 0 38.1 34.6" style="enable-background:new 0 0 38.1 34.6;" xml:space="preserve">
<style type="text/css">
	.st0{fill:#DA5D39;}
</style>
<g>
	<g>
		<path class="st0" d="M26.9,6l5.8,10.2c0.4,0.7,0.4,1.6,0,2.4l-5.8,10.1c-0.4,0.7-1.2,1.2-2.1,1.2l-11.5,0c-0.9,0-1.6-0.5-2.1-1.2
			L5.4,18.4c-0.4-0.7-0.4-1.6,0-2.4L11.2,6c0.4-0.7,1.2-1.2,2.1-1.2l11.5,0C25.7,4.8,26.5,5.2,26.9,6z M26.2,0H11.9
			c-1.7,0-3.3,0.9-4.1,2.4L0.6,14.9c-0.9,1.5-0.9,3.3,0,4.8l7.1,12.5c0.9,1.5,2.4,2.4,4.1,2.4h14.3c1.7,0,3.3-0.9,4.1-2.4l7.1-12.5
			c0.9-1.5,0.9-3.3,0-4.8L30.3,2.4C29.5,0.9,27.9,0,26.2,0L26.2,0z"/>
		<g>
			<path class="st0" d="M22.7,15.3c0-0.2,0-0.4,0-0.6c0-0.2,0-0.5,0-0.7l-2.3-0.6c-0.1-0.2-0.1-0.5-0.2-0.7l1.7-1.7
				c-0.2-0.4-0.4-0.8-0.6-1.1l-2.4,0.7c-0.1-0.1-0.3-0.3-0.4-0.4l0.7-2.5c-0.4-0.2-0.7-0.4-1.1-0.6L16.1,9C16,9,15.8,9,15.6,8.9
				L15,6.4c-0.2,0-0.4,0-0.6,0c-0.2,0-0.5,0-0.7,0l-0.6,2.5c-0.2,0-0.3,0.1-0.5,0.1l-1.8-1.9C10.4,7.4,10,7.6,9.7,7.8l0.7,2.4
				c-0.2,0.1-0.3,0.3-0.4,0.4L7.5,10c-0.2,0.4-0.4,0.7-0.6,1.1l1.7,1.6c-0.1,0.2-0.2,0.5-0.2,0.7l-2.3,0.6c0,0.2,0,0.4,0,0.6
				c0,0.2,0,0.5,0,0.7l2.1,0.5c0,0.3,0.1,0.6,0.2,0.9l-1.5,1.5c0.2,0.4,0.4,0.8,0.6,1.1l1.9-0.6c0.2,0.3,0.5,0.6,0.8,0.8l-0.5,1.9
				c0.4,0.2,0.7,0.4,1.1,0.6l1.3-1.4c0.4,0.1,0.8,0.3,1.2,0.3l0.5,1.8c0.2,0,0.4,0,0.6,0c0.2,0,0.5,0,0.7,0l0.4-1.8
				c0.4-0.1,0.8-0.2,1.2-0.3l1.3,1.4c0.4-0.2,0.8-0.4,1.1-0.6l-0.6-1.9c0.3-0.2,0.5-0.5,0.7-0.8l2,0.5c0.2-0.4,0.4-0.7,0.6-1.1
				l-1.6-1.5c0.1-0.3,0.2-0.6,0.2-0.9L22.7,15.3z M14.4,18.5c-2,0-3.5-1.6-3.5-3.5c0-2,1.6-3.5,3.5-3.5s3.5,1.6,3.5,3.5
				C17.9,16.9,16.4,18.5,14.4,18.5z"/>
			<path class="st0" d="M29.3,24.5c0-0.2,0-0.4,0-0.6c0-0.1,0-0.3,0-0.4l-1.7-0.6c-0.1-0.3-0.2-0.7-0.4-1l0.8-1.6
				c-0.2-0.3-0.5-0.5-0.7-0.8l-1.7,0.7c-0.3-0.2-0.6-0.3-0.9-0.4L24.1,18c-0.2,0-0.4,0-0.6,0c-0.1,0-0.3,0-0.4,0l-0.6,1.7
				c-0.3,0.1-0.7,0.2-1,0.4l-1.6-0.8c-0.3,0.2-0.5,0.5-0.8,0.7l0.7,1.7c-0.2,0.3-0.3,0.6-0.4,0.9l-1.7,0.6c0,0.2,0,0.4,0,0.6
				c0,0.1,0,0.3,0,0.4l1.7,0.6c0.1,0.3,0.2,0.7,0.4,1l-0.8,1.6c0.2,0.3,0.5,0.5,0.7,0.8l1.7-0.7c0.3,0.2,0.6,0.3,0.9,0.4l0.6,1.7
				c0.2,0,0.4,0,0.6,0c0.1,0,0.3,0,0.4,0l0.6-1.7c0.3-0.1,0.7-0.2,1-0.4l1.6,0.8c0.3-0.2,0.5-0.5,0.8-0.7L27.2,26
				c0.2-0.3,0.3-0.6,0.4-0.9L29.3,24.5z M23.5,26.2c-1.3,0-2.4-1.1-2.4-2.4c0-1.3,1.1-2.4,2.4-2.4c1.3,0,2.4,1.1,2.4,2.4
				C25.9,25.1,24.8,26.2,23.5,26.2z"/>
			<path class="st0" d="M28.7,12l1.4-1.2c-0.1-0.4-0.2-0.7-0.3-1L28,9.6c-0.1-0.2-0.3-0.3-0.5-0.5l-0.3-1.8c-0.3-0.1-0.7-0.2-1-0.3
				l-1.1,1.4c-0.2,0-0.5,0.1-0.7,0.2L22.7,8c-0.3,0.2-0.5,0.5-0.7,0.8l0.7,1.7c-0.1,0.2-0.1,0.4-0.2,0.7l-1.4,1.2
				c0.1,0.4,0.2,0.7,0.3,1l1.8,0.3c0.1,0.2,0.3,0.3,0.5,0.5l0.3,1.8c0.3,0.1,0.7,0.2,1,0.3l1.1-1.4c0.2,0,0.5-0.1,0.7-0.2l1.7,0.6
				c0.3-0.2,0.5-0.5,0.7-0.8l-0.7-1.7C28.6,12.5,28.7,12.2,28.7,12z M25.5,13.2c-0.9,0-1.6-0.8-1.6-1.7s0.8-1.6,1.7-1.6
				c0.9,0,1.6,0.8,1.6,1.7C27.2,12.5,26.4,13.2,25.5,13.2z"/>
		</g>
	</g>
</g>
</svg>
