<?xml version="1.0" encoding="utf-8"?>
<svg version="1.1" id="Layer_1" xmlns="http://www.w3.org/2000/svg" xmlns:xlink="http://www.w3.org/1999/xlink" x="0px" y="0px"
	 viewBox="0 0 158.5 34.6" style="enable-background:new 0 0 158.5 34.6;" xml:space="preserve">
<style type="text/css">
	.st0{fill:#DA5D39;}
	.st1{fill:#010202;}
</style>
<g>
	<g>
		<path class="st0" d="M26.9,6l5.8,10.2c0.4,0.7,0.4,1.6,0,2.4l-5.8,10.1c-0.4,0.7-1.2,1.2-2.1,1.2l-11.5,0c-0.9,0-1.6-0.5-2.1-1.2
			L5.4,18.4c-0.4-0.7-0.4-1.6,0-2.4L11.2,6c0.4-0.7,1.2-1.2,2.1-1.2l11.5,0C25.7,4.8,26.5,5.2,26.9,6z M26.2,0H11.9
			c-1.7,0-3.3,0.9-4.1,2.4L0.6,14.9c-0.9,1.5-0.9,3.3,0,4.8l7.1,12.5c0.9,1.5,2.4,2.4,4.1,2.4h14.3c1.7,0,3.3-0.9,4.1-2.4l7.1-12.5
			c0.9-1.5,0.9-3.3,0-4.8L30.3,2.4C29.5,0.9,27.9,0,26.2,0L26.2,0z"/>
		<g>
			<path class="st0" d="M22.7,15.3c0-0.2,0-0.4,0-0.6c0-0.2,0-0.5,0-0.7l-2.3-0.6c-0.1-0.2-0.1-0.5-0.2-0.7l1.7-1.7
				c-0.2-0.4-0.4-0.8-0.6-1.1l-2.4,0.7c-0.1-0.1-0.3-0.3-0.4-0.4l0.7-2.5c-0.4-0.2-0.7-0.4-1.1-0.6L16.1,9C16,9,15.8,9,15.6,8.9
				L15,6.4c-0.2,0-0.4,0-0.6,0c-0.2,0-0.5,0-0.7,0l-0.6,2.5c-0.2,0-0.3,0.1-0.5,0.1l-1.8-1.9C10.4,7.4,10,7.6,9.7,7.8l0.7,2.4
				c-0.2,0.1-0.3,0.3-0.4,0.4L7.5,10c-0.2,0.4-0.4,0.7-0.6,1.1l1.7,1.6c-0.1,0.2-0.2,0.5-0.2,0.7l-2.3,0.6c0,0.2,0,0.4,0,0.6
				c0,0.2,0,0.5,0,0.7l2.1,0.5c0,0.3,0.1,0.6,0.2,0.9l-1.5,1.5c0.2,0.4,0.4,0.8,0.6,1.1l1.9-0.6c0.2,0.3,0.5,0.6,0.8,0.8l-0.5,1.9
				c0.4,0.2,0.7,0.4,1.1,0.6l1.3-1.4c0.4,0.1,0.8,0.3,1.2,0.3l0.5,1.8c0.2,0,0.4,0,0.6,0c0.2,0,0.5,0,0.7,0l0.4-1.8
				c0.4-0.1,0.8-0.2,1.2-0.3l1.3,1.4c0.4-0.2,0.8-0.4,1.1-0.6l-0.6-1.9c0.3-0.2,0.5-0.5,0.7-0.8l2,0.5c0.2-0.4,0.4-0.7,0.6-1.1
				l-1.6-1.5c0.1-0.3,0.2-0.6,0.2-0.9L22.7,15.3z M14.4,18.5c-2,0-3.5-1.6-3.5-3.5c0-2,1.6-3.5,3.5-3.5s3.5,1.6,3.5,3.5
				C17.9,16.9,16.4,18.5,14.4,18.5z"/>
			<path class="st0" d="M29.3,24.5c0-0.2,0-0.4,0-0.6c0-0.1,0-0.3,0-0.4l-1.7-0.6c-0.1-0.3-0.2-0.7-0.4-1l0.8-1.6
				c-0.2-0.3-0.5-0.5-0.7-0.8l-1.7,0.7c-0.3-0.2-0.6-0.3-0.9-0.4L24.1,18c-0.2,0-0.4,0-0.6,0c-0.1,0-0.3,0-0.4,0l-0.6,1.7
				c-0.3,0.1-0.7,0.2-1,0.4l-1.6-0.8c-0.3,0.2-0.5,0.5-0.8,0.7l0.7,1.7c-0.2,0.3-0.3,0.6-0.4,0.9l-1.7,0.6c0,0.2,0,0.4,0,0.6
				c0,0.1,0,0.3,0,0.4l1.7,0.6c0.1,0.3,0.2,0.7,0.4,1l-0.8,1.6c0.2,0.3,0.5,0.5,0.7,0.8l1.7-0.7c0.3,0.2,0.6,0.3,0.9,0.4l0.6,1.7
				c0.2,0,0.4,0,0.6,0c0.1,0,0.3,0,0.4,0l0.6-1.7c0.3-0.1,0.7-0.2,1-0.4l1.6,0.8c0.3-0.2,0.5-0.5,0.8-0.7L27.2,26
				c0.2-0.3,0.3-0.6,0.4-0.9L29.3,24.5z M23.5,26.2c-1.3,0-2.4-1.1-2.4-2.4c0-1.3,1.1-2.4,2.4-2.4c1.3,0,2.4,1.1,2.4,2.4
				C25.9,25.1,24.8,26.2,23.5,26.2z"/>
			<path class="st0" d="M28.7,12l1.4-1.2c-0.1-0.4-0.2-0.7-0.3-1L28,9.6c-0.1-0.2-0.3-0.3-0.5-0.5l-0.3-1.8c-0.3-0.1-0.7-0.2-1-0.3
				l-1.1,1.4c-0.2,0-0.5,0.1-0.7,0.2L22.7,8c-0.3,0.2-0.5,0.5-0.7,0.8l0.7,1.7c-0.1,0.2-0.1,0.4-0.2,0.7l-1.4,1.2
				c0.1,0.4,0.2,0.7,0.3,1l1.8,0.3c0.1,0.2,0.3,0.3,0.5,0.5l0.3,1.8c0.3,0.1,0.7,0.2,1,0.3l1.1-1.4c0.2,0,0.5-0.1,0.7-0.2l1.7,0.6
				c0.3-0.2,0.5-0.5,0.7-0.8l-0.7-1.7C28.6,12.5,28.7,12.2,28.7,12z M25.5,13.2c-0.9,0-1.6-0.8-1.6-1.7s0.8-1.6,1.7-1.6
				c0.9,0,1.6,0.8,1.6,1.7C27.2,12.5,26.4,13.2,25.5,13.2z"/>
		</g>
	</g>
	<g>
		<g>
			<path class="st1" d="M42.5,11.2h5c2.5,0,3.9,1.1,3.9,3.5c0,1.3-0.6,2.3-1.6,2.8c1.5,0.4,2.4,1.4,2.4,3.1c0,2.3-1.4,3.6-4,3.6
				h-5.7V11.2z M45.3,16.3H47c1,0,1.5-0.5,1.5-1.4c0-0.9-0.4-1.3-1.4-1.3h-1.7V16.3z M45.3,21.9h2.5c1.1,0,1.5-0.5,1.5-1.4
				c0-1-0.5-1.5-1.7-1.5h-2.3V21.9z"/>
			<path class="st1" d="M56.5,20c0.1,1.2,0.7,2.1,2.2,2.1c1,0,1.8-0.4,2.3-0.9l1,2.1c-0.9,0.7-2.2,1.2-3.8,1.2c-3,0-4.5-2.2-4.5-5.3
				c0-3.1,1.8-5.3,4.5-5.3c2.7,0,3.8,1.8,3.8,4c0,0.7-0.1,1.5-0.2,2.1H56.5z M59.6,18c0-0.1,0.1-0.3,0.1-0.4c0-0.9-0.5-1.3-1.4-1.3
				c-1,0-1.6,0.7-1.6,1.7H59.6z"/>
			<path class="st1" d="M66.4,20c0.1,1.2,0.7,2.1,2.2,2.1c1,0,1.8-0.4,2.3-0.9l1,2.1c-0.9,0.7-2.2,1.2-3.8,1.2c-3,0-4.5-2.2-4.5-5.3
				c0-3.1,1.8-5.3,4.5-5.3c2.7,0,3.8,1.8,3.8,4c0,0.7-0.1,1.5-0.2,2.1H66.4z M69.5,18c0-0.1,0.1-0.3,0.1-0.4c0-0.9-0.5-1.3-1.4-1.3
				c-1,0-1.6,0.7-1.6,1.7H69.5z"/>
			<path class="st1" d="M74.2,24.3V10.6h2.8v4.5c0.6-0.6,1.5-1,2.6-1c2.1,0,3,1.5,3,3.9v3.3c0,0.6,0.2,0.7,0.6,0.7
				c0.3,0,0.5-0.1,0.8-0.3L84,24c-0.4,0.2-1.1,0.4-1.9,0.4c-1.5,0-2.3-0.7-2.3-2.4v-3.5c0-1.3-0.5-1.9-1.4-1.9
				c-0.8,0-1.3,0.7-1.5,1.4v6.2H74.2z"/>
			<path class="st1" d="M87.1,10c0.9,0,1.5,0.3,1.5,1.3c0,1-0.6,1.3-1.5,1.3c-0.9,0-1.5-0.4-1.5-1.3C85.6,10.4,86.2,10,87.1,10z
				 M88.5,14.2v7.1c0,0.6,0.2,0.7,0.5,0.7c0.3,0,0.5-0.1,0.8-0.3l0.1,2.2c-0.4,0.2-1.1,0.4-1.9,0.4c-1.5,0-2.3-0.7-2.3-2.4v-7.9
				H88.5z"/>
			<path class="st1" d="M94.9,19.8c0,1.3,0.5,2,1.4,2c0.9,0,1.5-0.8,1.5-2.3c0-2.1-0.4-4.1-0.8-5.3h2.8c0.2,0.9,0.8,3.3,0.8,5.5
				c0,2.8-1.6,4.7-4.3,4.7c-2.7,0-4.1-1.6-4.1-4.2v-3c0-0.6-0.2-0.8-0.6-0.8c-0.2,0-0.5,0.1-0.8,0.3l-0.1-2.2c0.5-0.3,1.2-0.4,2-0.4
				c1.4,0,2.2,0.7,2.2,2.7V19.8z"/>
			<path class="st1" d="M105.1,20c0.1,1.2,0.7,2.1,2.2,2.1c1,0,1.8-0.4,2.3-0.9l1,2.1c-0.9,0.7-2.2,1.2-3.8,1.2
				c-3,0-4.5-2.2-4.5-5.3c0-3.1,1.8-5.3,4.5-5.3c2.7,0,3.8,1.8,3.8,4c0,0.7-0.1,1.5-0.2,2.1H105.1z M108.2,18c0-0.1,0.1-0.3,0.1-0.4
				c0-0.9-0.5-1.3-1.4-1.3c-1,0-1.6,0.7-1.6,1.7H108.2z"/>
		</g>
		<g>
			<path d="M115.6,11.3h5c3.2,0,5.7,2.3,5.7,6.5c0,4.2-2.4,6.4-5.7,6.4h-5V11.3z M120.2,21.7c2,0,3.2-1.4,3.2-4c0-2.6-1.2-4-3.2-4
				h-1.8v8H120.2z"/>
			<path d="M137,21.1c0,0.5,0.1,0.9,0.5,0.9c0.3,0,0.6-0.1,0.8-0.3l0.1,2.2c-0.5,0.2-1.2,0.4-2,0.4c-1,0-1.7-0.2-1.9-1.2
				c-0.6,0.8-1.5,1.2-2.6,1.2c-2.3,0-3.9-1.8-3.9-5.1c0-3.2,1.4-5.2,4-5.2c0.8,0,1.8,0.2,2.3,0.9v-0.7h2.8V21.1z M132.7,16.5
				c-1.2,0-1.9,1-1.9,2.7c0,1.7,0.7,2.7,1.9,2.7c0.6,0,1.2-0.5,1.5-0.9v-3.8C133.9,16.9,133.4,16.5,132.7,16.5z"/>
			<path d="M143.6,20.7c0,0.9,0.3,1.2,1,1.2c0.5,0,1.2-0.3,1.6-0.6l0.7,2.2c-0.9,0.5-1.7,0.8-3,0.8c-1.7,0-3-1-3-3.3v-4.7h-1.4v-2.2
				h1.6l0.3-2.5h2.3v2.5h2.9v2.2h-2.9V20.7z"/>
			<path d="M157.1,21.1c0,0.5,0.1,0.9,0.5,0.9c0.3,0,0.6-0.1,0.8-0.3l0.1,2.2c-0.5,0.2-1.2,0.4-2,0.4c-1,0-1.7-0.2-1.9-1.2
				c-0.6,0.8-1.5,1.2-2.6,1.2c-2.3,0-3.9-1.8-3.9-5.1c0-3.2,1.4-5.2,4-5.2c0.8,0,1.8,0.2,2.3,0.9v-0.7h2.8V21.1z M152.8,16.5
				c-1.2,0-1.9,1-1.9,2.7c0,1.7,0.7,2.7,1.9,2.7c0.6,0,1.2-0.5,1.5-0.9v-3.8C154,16.9,153.5,16.5,152.8,16.5z"/>
		</g>
	</g>
</g>
</svg>
